<?xml version="1.0" encoding="iso-8859-1"?>
<!-- Generator: Adobe Illustrator 19.0.0, SVG Export Plug-In . SVG Version: 6.00 Build 0)  -->
<svg version="1.1" id="Layer_1" xmlns="http://www.w3.org/2000/svg" xmlns:xlink="http://www.w3.org/1999/xlink" x="0px" y="0px"
	 viewBox="0 0 512 512" style="enable-background:new 0 0 512 512;" xml:space="preserve">
<path style="fill:#F2F2F2;" d="M400.431,29.681H171.462c-13.151,0-23.851,10.699-23.851,23.851v366.774
	c0,13.152,10.7,23.851,23.851,23.851h228.969c13.151,0,23.851-10.699,23.851-23.851V53.532
	C424.282,40.38,413.582,29.681,400.431,29.681z"/>
<path style="fill:#CCCCCC;" d="M424.282,53.532c0-13.152-10.7-23.851-23.851-23.851H171.462c-13.151,0-23.851,10.699-23.851,23.851
	v16.254h276.671V53.532z"/>
<path style="fill:#E5E5E5;" d="M147.611,69.786v350.521c0,13.152,10.7,23.851,23.851,23.851h228.969
	c13.151,0,23.851-10.699,23.851-23.851V69.786H147.611z"/>
<g>
	<path style="fill:#FCB16B;" d="M302.907,0h-33.921c-4.392,0-7.95,3.56-7.95,7.95v80.563c0,4.391,3.559,7.95,7.95,7.95h33.921
		c4.392,0,7.95-3.56,7.95-7.95V7.95C310.857,3.56,307.299,0,302.907,0z"/>
	<path style="fill:#FCB16B;" d="M379.23,0h-33.921c-4.392,0-7.95,3.56-7.95,7.95v80.563c0,4.391,3.559,7.95,7.95,7.95h33.921
		c4.392,0,7.95-3.56,7.95-7.95V7.95C387.18,3.56,383.622,0,379.23,0z"/>
	<path style="fill:#FCB16B;" d="M226.584,0h-33.921c-4.392,0-7.95,3.56-7.95,7.95v80.563c0,4.391,3.559,7.95,7.95,7.95h33.921
		c4.392,0,7.95-3.56,7.95-7.95V7.95C234.534,3.56,230.976,0,226.584,0z"/>
</g>
<g>
	<path style="fill:#FB9D46;" d="M268.986,88.513V7.95c0-4.391,3.559-7.95,7.95-7.95h-7.95c-4.392,0-7.95,3.56-7.95,7.95v80.563
		c0,4.391,3.559,7.95,7.95,7.95h7.95C272.544,96.464,268.986,92.904,268.986,88.513z"/>
	<path style="fill:#FB9D46;" d="M345.309,88.513V7.95c0-4.391,3.559-7.95,7.95-7.95h-7.95c-4.392,0-7.95,3.56-7.95,7.95v80.563
		c0,4.391,3.559,7.95,7.95,7.95h7.95C348.867,96.464,345.309,92.904,345.309,88.513z"/>
	<path style="fill:#FB9D46;" d="M192.663,88.513V7.95c0-4.391,3.559-7.95,7.95-7.95h-7.95c-4.392,0-7.95,3.56-7.95,7.95v80.563
		c0,4.391,3.559,7.95,7.95,7.95h7.95C196.221,96.464,192.663,92.904,192.663,88.513z"/>
</g>
<g>
	<path style="fill:#808080;" d="M379.23,172.787H268.986c-4.392,0-7.95-3.56-7.95-7.95s3.559-7.95,7.95-7.95H379.23
		c4.392,0,7.95,3.56,7.95,7.95S383.622,172.787,379.23,172.787z"/>
	<path style="fill:#808080;" d="M379.23,257.59H268.986c-4.392,0-7.95-3.56-7.95-7.95s3.559-7.95,7.95-7.95H379.23
		c4.392,0,7.95,3.56,7.95,7.95S383.622,257.59,379.23,257.59z"/>
	<path style="fill:#808080;" d="M379.23,342.393H268.986c-4.392,0-7.95-3.56-7.95-7.95c0-4.391,3.559-7.95,7.95-7.95H379.23
		c4.392,0,7.95,3.56,7.95,7.95C387.18,338.834,383.622,342.393,379.23,342.393z"/>
</g>
<g>
	<path style="fill:#FF7452;" d="M226.584,189.747h-33.921c-4.392,0-7.95-3.56-7.95-7.95v-33.921c0-4.391,3.559-7.95,7.95-7.95
		h33.921c4.392,0,7.95,3.56,7.95,7.95v33.921C234.534,186.188,230.976,189.747,226.584,189.747z M200.613,173.847h18.021v-18.021
		h-18.021V173.847z"/>
	<path style="fill:#FF7452;" d="M226.584,274.551h-33.921c-4.392,0-7.95-3.56-7.95-7.95v-33.921c0-4.391,3.559-7.95,7.95-7.95
		h33.921c4.392,0,7.95,3.56,7.95,7.95V266.6C234.534,270.991,230.976,274.551,226.584,274.551z M200.613,258.65h18.021v-18.021
		h-18.021V258.65z"/>
	<path style="fill:#FF7452;" d="M226.584,359.354h-33.921c-4.392,0-7.95-3.56-7.95-7.95v-33.921c0-4.391,3.559-7.95,7.95-7.95
		h33.921c4.392,0,7.95,3.56,7.95,7.95v33.921C234.534,355.794,230.976,359.354,226.584,359.354z M200.613,343.453h18.021v-18.021
		h-18.021V343.453z"/>
</g>
<path style="fill:#CCCCCC;" d="M424.282,420.306v-70.191c-8.168-3.762-16.895-5.719-25.798-5.719c-8.126,0-16.16,1.622-23.877,4.819
	c-25.766,10.672-43.078,37.112-43.078,65.79c0,9.304,2.421,18.99,7.305,29.151h61.598
	C413.582,444.157,424.282,433.458,424.282,420.306z"/>
<path style="fill:#E24642;" d="M472.113,363.906c-15.867-6.572-32.889-4.05-46.771,6.614c-13.883-10.665-30.907-13.187-46.771-6.614
	c-19.896,8.241-33.262,28.776-33.262,51.1c0,17.762,12.933,39.384,38.44,64.264c18.244,17.796,36.211,30.705,36.967,31.246
	c1.383,0.99,3.005,1.484,4.626,1.484c1.621,0,3.244-0.495,4.626-1.484c0.756-0.541,18.722-13.45,36.967-31.246
	c25.508-24.879,38.44-46.501,38.44-64.264C505.375,392.683,492.009,372.147,472.113,363.906z"/>
<path style="fill:#C42725;" d="M410.25,479.8c-25.508-24.88-38.44-46.502-38.44-64.264c0-22.323,13.366-42.86,33.262-51.1
	c1.777-0.736,3.569-1.341,5.368-1.85c-10.297-3.376-21.337-3.044-31.869,1.32c-19.896,8.241-33.262,28.776-33.262,51.1
	c0,17.762,12.933,39.384,38.44,64.264c18.244,17.796,36.211,30.705,36.967,31.246c1.383,0.99,3.005,1.484,4.626,1.484
	c1.621,0,3.244-0.495,4.626-1.484c0.306-0.219,3.446-2.475,8.287-6.266C431.167,498.672,420.758,490.05,410.25,479.8z"/>
<circle style="fill:#FB9D46;" cx="464.563" cy="409.706" r="15.901"/>
<path style="fill:#333333;" d="M14.576,202.468c-4.392,0-7.95-3.56-7.95-7.95V62.012c0-13.152,10.7-23.851,23.851-23.851h18.021
	c4.392,0,7.95,3.56,7.95,7.95s-3.559,7.95-7.95,7.95H30.476c-4.384,0-7.95,3.566-7.95,7.95v132.505
	C22.526,198.908,18.967,202.468,14.576,202.468z"/>
<path style="fill:#458FDE;" d="M124.29,41.872C124.29,18.784,105.506,0,82.418,0S40.547,18.784,40.547,41.872v152.999h83.743V41.872
	z"/>
<path style="fill:#FB9D46;" d="M42.289,441.173l33.921,42.402c1.508,1.886,3.793,2.984,6.208,2.984s4.7-1.098,6.208-2.984
	l33.921-42.402c1.127-1.41,1.743-3.161,1.743-4.966H40.547C40.547,438.012,41.161,439.763,42.289,441.173z"/>
<path style="fill:#4C4C4C;" d="M82.418,512c-4.392,0-7.95-3.56-7.95-7.95v-25.441c0-4.391,3.559-7.95,7.95-7.95s7.95,3.56,7.95,7.95
	v25.441C90.369,508.44,86.81,512,82.418,512z"/>
<rect x="40.547" y="194.867" style="fill:#FFD652;" width="83.743" height="241.34"/>
<path style="fill:#4F5AA8;" d="M98.054,3.04C93.219,1.087,87.944,0,82.418,0C59.331,0,40.547,18.784,40.547,41.872v152.999h31.271
	V41.872C71.818,24.31,82.691,9.249,98.054,3.04z"/>
<rect x="40.547" y="194.867" style="fill:#FB9D46;" width="31.271" height="241.34"/>
<circle style="fill:#89DCFC;" cx="89.839" cy="36.571" r="11.66"/>
<g>
</g>
<g>
</g>
<g>
</g>
<g>
</g>
<g>
</g>
<g>
</g>
<g>
</g>
<g>
</g>
<g>
</g>
<g>
</g>
<g>
</g>
<g>
</g>
<g>
</g>
<g>
</g>
<g>
</g>
</svg>
